<svg version="1" xmlns="http://www.w3.org/2000/svg" width="346.667" height="346.667" viewBox="0 0 260.000000 260.000000"><path d="M179.7 52.2c-16.8 2.4-31.8 11.7-36.5 22.7-4.8 11.3-5.2 27-1 36.3 5.9 12.9 16.4 19 47.8 27.8 21.7 6.1 28 10.6 28 20.1 0 10.8-10.1 17.1-27 16.7-12-.2-22.5-4.8-28.9-12.8-1.7-2.2-3.7-4-4.3-4-1.8 0-20.8 15.4-20.8 16.8 0 .8 3.3 4.6 7.3 8.6 11.7 11.6 22.1 15.5 43.2 16.3 38.8 1.5 58.4-12.3 59.9-42.2.8-16.9-7.5-31.4-21.9-38.1-3.8-1.8-14.9-5.5-24.5-8.3-19.2-5.5-23.9-7.2-28.1-10.3-7.5-5.6-6-16.3 3-21.6 4.1-2.4 5.6-2.7 14.1-2.7 13.6 0 17.9 1.5 26.2 9.3 4.8 4.5 7.2 6.2 8.1 5.5.6-.5 5.3-4.2 10.4-8.2 10.6-8.5 10.5-7.8 1.7-16.6-7.2-7.1-19.2-13.1-28.9-14.5-9.1-1.3-22-1.7-27.8-.8zM7 67.5V81h44v118h29V81h45V54H7v13.5z"/></svg>