<svg version="1" xmlns="http://www.w3.org/2000/svg" width="346.667" height="346.667" viewBox="0 0 260.000000 260.000000"><path d="M179.5 51.6c-24 3.9-37.4 15.8-40.5 35.9-2.1 13.4.7 23.9 8.6 32.4 7.3 7.9 15.4 11.7 39.4 18.6 20.4 5.9 25.7 8.4 29.1 13.8 2.5 4 2.1 11.6-.8 15.5-4.6 6.2-16.8 9.3-29.3 7.4-10.1-1.4-16.4-4.7-22.8-11.7l-5.2-5.7-9.6 7.4c-5.2 4-10.2 7.9-11.1 8.5-1.4 1.1-1.3 1.7 1.2 5.4 9.7 13.9 25.5 21.3 48.5 22.5 23.8 1.4 43.3-5.1 52.6-17.3 10.1-13.2 11.1-36.8 2.2-50.6-6.2-9.6-14.9-14.8-34.4-20.2-26.7-7.5-32.2-9.4-35.2-12.5-7.3-7.3-3.6-18.3 7.5-22.1 5.7-2 18.8-1.7 25.3.5 4.2 1.4 7 3.4 11.7 8.2l6.2 6.3 11-8.6 11-8.6-2.2-3.1c-6.5-9.2-15.4-15.5-27.2-19.2-6.4-2.1-10.5-2.7-20.5-2.9-6.9-.2-13.8-.1-15.5.1zM7 67.5V81h44v118h30V81h44V54H7v13.5z"/></svg>